<svg width="128" height="128" viewBox="0 0 128 128" fill="none" xmlns="http://www.w3.org/2000/svg">
    <path fill-rule="evenodd" clip-rule="evenodd" d="M122.804 91.045L79.503 66.045V3.95496L115.876 24.955L122.804 36.955V91.045Z" fill="#E5E6E8"/>
    <path fill-rule="evenodd" clip-rule="evenodd" d="M115.876 24.954V32.954L122.804 36.954L115.876 24.954ZM122.804 36.954V91.045L128 88.045V33.955L122.804 36.954Z" fill="#3A485F"/>
    <path fill-rule="evenodd" clip-rule="evenodd" d="M115.876 24.954L122.804 36.954L128 33.954L121.072 21.954L115.876 24.954Z" fill="#697587"/>
    <path fill-rule="evenodd" clip-rule="evenodd" d="M86.43 59.954L115.876 76.954V72.954L86.431 55.954L86.43 59.954ZM96.91 22.003L86.43 15.954V19.954L96.91 26.004V22.003ZM86.43 51.954L115.876 68.954V64.954L86.431 47.954L86.43 51.954ZM86.43 23.954V27.954L115.876 44.954V40.954L86.43 23.954ZM86.43 35.954L115.876 52.954V48.954L86.431 31.954L86.43 35.954ZM86.43 43.954L115.876 60.954V56.954L86.431 39.954L86.43 43.954Z" fill="#CED0D1"/>
    <path fill-rule="evenodd" clip-rule="evenodd" d="M79.503 3.95398L115.876 24.954L121.071 21.954L84.698 0.953979L79.503 3.95398Z" fill="white"/>
    <path fill-rule="evenodd" clip-rule="evenodd" d="M96.91 54L91.713 57V109L96.909 106L96.91 54Z" fill="#3A485F"/>
    <path fill-rule="evenodd" clip-rule="evenodd" d="M31.09 22L36.287 19L96.909 54L91.713 57L31.09 22Z" fill="white"/>
    <path fill-rule="evenodd" clip-rule="evenodd" d="M36.287 25L31.091 22V70L36.287 73V25ZM91.713 57L86.517 54V102L91.713 105V57Z" fill="#CED0D1"/>
    <path fill-rule="evenodd" clip-rule="evenodd" d="M86.517 64V54L31.09 22V32L86.517 64ZM91.713 109V103L31.09 68V74L91.713 109Z" fill="#CED0D1"/>
    <path fill-rule="evenodd" clip-rule="evenodd" d="M39.751 32C39.751 30.896 38.976 29.552 38.02 29C37.063 28.448 36.287 28.896 36.287 30C36.287 31.104 37.063 32.448 38.02 33C38.976 33.552 39.751 33.104 39.751 32ZM44.947 35C44.947 33.896 44.172 32.552 43.217 32C42.259 31.448 41.483 31.896 41.483 33C41.483 34.104 42.259 35.448 43.216 36C44.172 36.552 44.947 36.104 44.947 35ZM50.144 38C50.144 36.896 49.369 35.552 48.412 35C47.456 34.448 46.68 34.896 46.68 36C46.68 37.104 47.456 38.448 48.412 39C49.369 39.552 50.144 39.104 50.144 38Z" fill="#697587"/>
    <path fill-rule="evenodd" clip-rule="evenodd" d="M86.517 100L36.287 71V35L86.517 64V100Z" fill="white"/>
    <path fill-rule="evenodd" clip-rule="evenodd" d="M43.216 47L39.751 45V41L43.216 43V47ZM79.589 68L46.679 49V45L79.589 64V68ZM43.216 55L39.751 53V49L43.216 51V55ZM76.124 74L46.68 57V53L76.124 70V74ZM43.216 63L39.751 61V57L43.216 59V63ZM79.589 84L46.679 65V61L79.589 80V84ZM43.216 71L39.751 69V65L43.216 67V71ZM58.804 80L46.68 73V69L58.804 76V80Z" fill="#E5E6E8"/>
    <path d="M43.902 27.0079C45.0562 27.6758 46.1769 28.4 47.26 29.1779" stroke="#FF6F00" stroke-width="2"/>
    <path d="M52.08 33.136C61.67 42.064 69.06 55.532 71.171 68.207" stroke="#FF6F00" stroke-width="2" stroke-dasharray="8.32 6.24"/>
    <path d="M16.023 43.103C16.023 41.705 16.1 40.373 16.251 39.108M71.582 71.302C71.7136 72.6293 71.7803 73.9622 71.782 75.296L71.582 71.302Z" stroke="#FF6F00" stroke-width="2"/>
    <path d="M17.583 33.36C20.705 24.867 28.231 21.305 37.555 24.18" stroke="#FF6F00" stroke-width="2" stroke-dasharray="7.88 5.91"/>
    <path d="M43.902 91.3919C42.7476 90.7238 41.6266 89.9996 40.543 89.2219M40.33 25.2059C41.5551 25.7354 42.7478 26.3368 43.902 27.0069L40.33 25.2059Z" stroke="#FF6F00" stroke-width="2"/>
    <path d="M35.725 85.264C26.135 76.336 18.745 62.868 16.634 50.194" stroke="#FF6F00" stroke-width="2" stroke-dasharray="8.32 6.24"/>
    <path d="M71.782 75.296C71.782 76.694 71.705 78.026 71.554 79.291M16.223 47.098C16.0914 45.7707 16.0247 44.4378 16.023 43.104L16.223 47.098Z" stroke="#FF6F00" stroke-width="2"/>
    <path d="M70.222 85.04C67.1 93.532 59.574 97.094 50.25 94.22" stroke="#FF6F00" stroke-width="2" stroke-dasharray="7.88 5.91"/>
    <path d="M47.476 93.1929C46.2506 92.6638 45.0575 92.0628 43.903 91.3929" stroke="#FF6F00" stroke-width="2"/>
    <path fill-rule="evenodd" clip-rule="evenodd" d="M52.902 59.2C52.902 56.813 51.9538 54.5238 50.266 52.836C48.5781 51.1482 46.2889 50.2 43.902 50.2C42.122 50.2 40.3819 50.7278 38.9019 51.7167C37.4218 52.7057 36.2683 54.1113 35.5871 55.7558C34.9059 57.4003 34.7277 59.2099 35.0749 60.9558C35.4222 62.7016 36.2794 64.3052 37.538 65.5639C38.7967 66.8226 40.4004 67.6798 42.1462 68.027C43.892 68.3743 45.7016 68.1961 47.3461 67.5149C48.9907 66.8337 50.3963 65.6801 51.3852 64.2001C52.3742 62.72 52.902 60.98 52.902 59.2Z" fill="#FF6F00"/>
    <path fill-rule="evenodd" clip-rule="evenodd" d="M5.617 51.2V59.2L12.547 55.2V47.2L5.617 51.2Z" fill="white"/>
    <path fill-rule="evenodd" clip-rule="evenodd" d="M18.62 99.306L11.691 103.306V111.306L14.289 115.806L23.815 121.306L33.342 115.806V107.806L18.62 99.306Z" fill="#425066"/>
    <path fill-rule="evenodd" clip-rule="evenodd" d="M26.414 111.806V119.806L33.342 115.806V107.806L26.414 111.806Z" fill="#3A485F"/>
    <path fill-rule="evenodd" clip-rule="evenodd" d="M11.691 103.306V111.306L14.289 115.806L23.815 121.306L26.415 119.806V111.806L11.691 103.306Z" fill="#425066"/>
    <path fill-rule="evenodd" clip-rule="evenodd" d="M34.64 105.556L32.043 107.056L19.919 100.056L17.321 95.556V79.556L34.641 89.556L34.64 105.556Z" fill="#CED0D1"/>
    <path fill-rule="evenodd" clip-rule="evenodd" d="M6.927 59.556C6.927 65.631 9.06 72.362 12.509 78.334L25.98 101.669L39.453 93.89C42.9 91.899 45.033 87.63 45.033 81.555C45.033 69.406 36.503 54.631 25.98 48.556C22.923 46.791 20.032 45.954 17.471 45.954C11.219 45.953 6.927 50.937 6.927 59.556Z" fill="url(#paint0_linear_74_191)"/>
    <path fill-rule="evenodd" clip-rule="evenodd" d="M27.713 109.556L25.113 111.056L12.99 104.056L10.393 99.556V83.556L27.713 93.556V109.556Z" fill="#E5E6E8"/>
    <path fill-rule="evenodd" clip-rule="evenodd" d="M19.053 52.556C8.53 46.481 0 51.406 0 63.556C0 69.631 2.133 76.362 5.58 82.334L19.053 105.668L32.525 97.89C35.973 95.9 38.105 91.631 38.105 85.556C38.105 73.406 29.575 58.631 19.053 52.556Z" fill="#E5E6E8"/>
    <path fill-rule="evenodd" clip-rule="evenodd" d="M27.713 100.669V109.559L34.641 105.559V96.6689L27.713 100.669Z" fill="#CED0D1"/>
    <defs>
    <linearGradient id="paint0_linear_74_191" x1="26.3367" y1="71.8988" x2="31.7503" y2="81.2575" gradientUnits="userSpaceOnUse">
    <stop offset="0.47" stop-color="white"/>
    <stop offset="0.99" stop-color="#CFD1D2"/>
    <stop offset="1" stop-color="#CED0D1"/>
    </linearGradient>
    </defs>
</svg>
