<svg width="128" height="128" viewBox="0 0 128 128" fill="none" xmlns="http://www.w3.org/2000/svg">
    <path fill-rule="evenodd" clip-rule="evenodd" d="M90.67 84.6019L67.464 71.1999V23.2L99.33 31.6L90.67 84.6019Z" fill="#CED0D1"/>
    <path fill-rule="evenodd" clip-rule="evenodd" d="M88.938 37.602L85.473 35.602L87.207 34.602L70.927 25.202L69.197 26.202L65.732 24.202L76.124 18.202L99.331 31.602L88.938 37.602Z" fill="white"/>
    <path fill-rule="evenodd" clip-rule="evenodd" d="M99.33 79.6021L90.67 84.6021V40.6051L88.937 41.6051V37.6021L99.33 31.6021V79.6021Z" fill="#3A485F"/>
    <path fill-rule="evenodd" clip-rule="evenodd" d="M70.928 67.204L87.206 76.604V72.604L70.928 63.204V67.204ZM70.928 59.204L87.206 68.604V64.604L70.928 55.204V59.204ZM70.928 51.204L87.206 60.604V56.604L70.928 47.204V51.204ZM70.928 43.204L87.206 52.604V48.604L70.928 39.204V43.204ZM87.206 40.604V44.604L70.928 35.204V31.204L87.206 40.604Z" fill="#E5E6E8"/>
    <path fill-rule="evenodd" clip-rule="evenodd" d="M70.928 25.201L69.197 26.201V30.203L70.927 29.203L70.928 25.201Z" fill="#3A485F"/>
    <path fill-rule="evenodd" clip-rule="evenodd" d="M65.732 24.201V28.203L69.196 30.203V26.201L65.732 24.201Z" fill="#CED0D1"/>
    <path fill-rule="evenodd" clip-rule="evenodd" d="M90.67 82.6021L88.938 83.6021V85.6021L90.67 84.6021V82.6021Z" fill="#3A485F"/>
    <path fill-rule="evenodd" clip-rule="evenodd" d="M65.732 70.2V72.2L88.937 85.602V83.602L65.732 70.2Z" fill="#CED0D1"/>
    <path fill-rule="evenodd" clip-rule="evenodd" d="M67.464 69.2L65.733 70.2L88.938 83.602L90.67 82.602L67.464 69.2Z" fill="white"/>
    <path fill-rule="evenodd" clip-rule="evenodd" d="M65.732 122.19L69.524 126L104.165 106V100L65.732 122.19Z" fill="#CED0D1"/>
    <path fill-rule="evenodd" clip-rule="evenodd" d="M14.965 88.5V94.5L69.525 126V120L14.965 88.5Z" fill="#3A485F"/>
    <path fill-rule="evenodd" clip-rule="evenodd" d="M94.64 100.5L70.39 114.5L25.358 88.5L49.607 74.5L94.64 100.5Z" fill="#E5E6E8"/>
    <path fill-rule="evenodd" clip-rule="evenodd" d="M64.328 117L69.524 120L104.165 100L98.97 97L64.328 117Z" fill="white"/>
    <path fill-rule="evenodd" clip-rule="evenodd" d="M20.161 85.5L14.965 88.5L69.525 120L74.721 117L20.161 85.5ZM49.606 68.5L44.41 71.5L98.97 103L104.165 100L49.606 68.5Z" fill="white"/>
    <path fill-rule="evenodd" clip-rule="evenodd" d="M34.884 90L52.204 100L69.524 90L52.204 80L34.884 90Z" fill="#CED0D1"/>
    <path fill-rule="evenodd" clip-rule="evenodd" d="M40.942 79.5021C39.032 78.3991 35.932 78.3991 34.022 79.5021C32.11 80.6061 32.11 82.3941 34.022 83.4981C35.932 84.6011 39.032 84.6011 40.942 83.4981C42.852 82.3941 42.852 80.6061 40.942 79.5021Z" fill="white"/>
    <path fill-rule="evenodd" clip-rule="evenodd" d="M72.988 96L59.132 104L55.668 102L69.524 94L72.988 96ZM79.917 100L66.061 108L62.597 106L76.453 98L79.917 100ZM93.773 100L69.524 114L66.06 112L90.308 98L93.773 100Z" fill="#CED0D1"/>
    <path fill-rule="evenodd" clip-rule="evenodd" d="M14.965 88.5L20.161 91.5L53.07 72.5L47.874 69.5L14.965 88.5Z" fill="white"/>
    <path fill-rule="evenodd" clip-rule="evenodd" d="M39.214 80.5C38.257 79.948 36.706 79.948 35.75 80.5C34.793 81.053 34.793 81.948 35.75 82.5C36.706 83.053 38.257 83.053 39.214 82.5C40.17 81.948 40.17 81.053 39.214 80.5ZM12.393 35H1.998L7.195 90L12.392 87L12.393 35ZM62.268 6.20398L57.073 9.20398V61.204L62.268 58.204V6.20398Z" fill="#CED0D1"/>
    <path fill-rule="evenodd" clip-rule="evenodd" d="M62.268 16.204V6.20398L7.19701 38V48L62.268 16.204ZM62.268 58.204V52.204L7.19701 84V90L62.268 58.204Z" fill="#CED0D1"/>
    <path fill-rule="evenodd" clip-rule="evenodd" d="M15.856 38C15.856 36.896 15.081 36.448 14.124 37C13.168 37.552 12.392 38.896 12.392 40C12.392 41.104 13.168 41.552 14.124 41C15.081 40.448 15.856 39.104 15.856 38ZM21.053 35C21.053 33.896 20.278 33.448 19.321 34C18.365 34.552 17.589 35.896 17.589 37C17.589 38.104 18.365 38.552 19.321 38C20.278 37.448 21.053 36.104 21.053 35ZM26.249 32C26.249 30.896 25.474 30.448 24.517 31C23.561 31.552 22.784 32.896 22.784 34C22.784 35.104 23.561 35.552 24.517 35C25.474 34.448 26.249 33.104 26.249 32Z" fill="#697587"/>
    <path fill-rule="evenodd" clip-rule="evenodd" d="M57.072 55.204L12.392 81V45L57.072 19.204V55.204Z" fill="white"/>
    <path fill-rule="evenodd" clip-rule="evenodd" d="M19.32 49L15.856 51V47L19.32 45V49ZM50.144 31.204L22.784 47V43L50.144 27.204V31.204ZM19.32 57L15.856 59V55L19.32 53V57ZM44.157 42.681L22.784 55.001V51.001L44.157 38.681V42.681ZM19.32 65L15.856 67V63L19.32 61V65ZM50.144 47.204L22.784 63V59L50.144 43.204V47.204ZM19.32 73L15.856 75V71L19.32 69V73ZM40.845 60.51L22.784 71V67L40.844 56.51L40.845 60.51Z" fill="#CED0D1"/>
    <path fill-rule="evenodd" clip-rule="evenodd" d="M2 35L7.196 38V90L2 87V35Z" fill="#3A485F"/>
    <path fill-rule="evenodd" clip-rule="evenodd" d="M62.268 6.20398L57.073 3.20398L2 35L7.197 38L62.268 6.20398Z" fill="white"/>
    <path fill-rule="evenodd" clip-rule="evenodd" d="M117.34 100L94.134 86.599V38.599L126 47L117.34 100Z" fill="#CED0D1"/>
    <path fill-rule="evenodd" clip-rule="evenodd" d="M115.607 53L112.143 51L113.876 50L97.597 40.599L95.867 41.599L92.402 39.599L102.794 33.599L126 47L115.607 53Z" fill="white"/>
    <path fill-rule="evenodd" clip-rule="evenodd" d="M126 95L117.34 100V56.002L115.607 57.002V53L126 47V95Z" fill="#3A485F"/>
    <path fill-rule="evenodd" clip-rule="evenodd" d="M97.598 82.602L113.876 92.002V88.002L97.598 78.602V82.602ZM97.598 74.602L113.876 84.002V80.002L97.598 70.602V74.602ZM97.598 66.602L113.876 76.002V72.002L97.598 62.6021V66.602ZM97.598 58.6021L113.876 68.002V64.002L97.598 54.6021V58.6021ZM113.876 56.002V60.002L97.598 50.6021V46.6021L113.876 56.002Z" fill="#E5E6E8"/>
    <path fill-rule="evenodd" clip-rule="evenodd" d="M121.67 61C122.626 60.448 123.402 59.104 123.402 58C123.402 56.896 122.626 56.448 121.67 57C120.713 57.552 119.938 58.896 119.938 60C119.938 61.104 120.713 61.552 121.67 61ZM121.67 65.012C120.713 65.564 119.938 66.908 119.938 68.012C119.938 69.116 120.713 69.564 121.67 69.012C122.626 68.46 123.402 67.116 123.402 66.012C123.402 64.908 122.626 64.46 121.67 65.012ZM121.67 73.024C120.713 73.577 119.938 74.92 119.938 76.024C119.938 77.129 120.713 77.577 121.67 77.024C122.626 76.472 123.402 75.129 123.402 74.024C123.402 72.92 122.626 72.472 121.67 73.024Z" fill="#697587"/>
    <path fill-rule="evenodd" clip-rule="evenodd" d="M97.598 40.6L95.867 41.6V45.6L97.597 44.6L97.598 40.6Z" fill="#3A485F"/>
    <path fill-rule="evenodd" clip-rule="evenodd" d="M92.402 39.6V43.602L95.866 45.602V41.599L92.402 39.6Z" fill="#CED0D1"/>
    <path fill-rule="evenodd" clip-rule="evenodd" d="M117.34 98L115.608 99V101L117.34 100V98Z" fill="#3A485F"/>
    <path fill-rule="evenodd" clip-rule="evenodd" d="M92.402 85.6V87.6L115.607 101V99L92.402 85.6Z" fill="#CED0D1"/>
    <path fill-rule="evenodd" clip-rule="evenodd" d="M94.134 84.6L92.403 85.6L115.608 99L117.34 98L94.134 84.6Z" fill="white"/>
    <path d="M64 37.808C65.1544 38.4761 66.2754 39.2003 67.359 39.978" stroke="#FF6F00" stroke-width="2"/>
    <path d="M72.178 43.936C81.767 52.864 89.157 66.332 91.268 79.007" stroke="#FF6F00" stroke-width="2" stroke-dasharray="8.32 6.24"/>
    <path d="M36.12 53.9031C36.12 52.5051 36.197 51.1731 36.348 49.9081M91.68 82.1021C91.8116 83.4294 91.8783 84.7623 91.88 86.0961L91.68 82.1021Z" stroke="#FF6F00" stroke-width="2"/>
    <path d="M37.68 44.16C40.803 35.667 48.329 32.105 57.653 34.98" stroke="#FF6F00" stroke-width="2" stroke-dasharray="7.88 5.91"/>
    <path d="M64 102.192C62.8456 101.524 61.7246 100.8 60.641 100.022M60.427 36.006C61.6524 36.5354 62.8455 37.1368 64 37.807L60.427 36.006Z" stroke="#FF6F00" stroke-width="2"/>
    <path d="M55.822 96.064C46.233 87.136 38.843 73.668 36.732 60.994" stroke="#FF6F00" stroke-width="2" stroke-dasharray="8.32 6.24"/>
    <path d="M91.88 86.0961C91.88 87.4941 91.803 88.8261 91.652 90.0911M36.32 57.8981C36.1884 56.5705 36.1216 55.2372 36.12 53.9031L36.32 57.8981Z" stroke="#FF6F00" stroke-width="2"/>
    <path d="M90.32 95.839C87.197 104.333 79.671 107.895 70.347 105.019" stroke="#FF6F00" stroke-width="2" stroke-dasharray="7.88 5.91"/>
    <path d="M67.573 103.993C66.3476 103.464 65.1545 102.863 64 102.193" stroke="#FF6F00" stroke-width="2"/>
    <path fill-rule="evenodd" clip-rule="evenodd" d="M73 70C73 67.6131 72.0518 65.3239 70.364 63.636C68.6761 61.9482 66.387 61 64 61C62.22 61 60.4799 61.5278 58.9999 62.5168C57.5198 63.5057 56.3663 64.9113 55.6851 66.5558C55.0039 68.2004 54.8257 70.01 55.1729 71.7558C55.5202 73.5016 56.3774 75.1053 57.636 76.364C58.8947 77.6226 60.4984 78.4798 62.2442 78.8271C63.99 79.1743 65.7996 78.9961 67.4442 78.3149C69.0887 77.6337 70.4943 76.4802 71.4832 75.0001C72.4722 73.5201 73 71.78 73 70Z" fill="#FF6F00"/>
</svg>
