<svg width="128" height="128" viewBox="0 0 128 128" fill="none" xmlns="http://www.w3.org/2000/svg">
    <path fillRule="evenodd" clipRule="evenodd" d="M122.804 23.548V55.548L128 52.548V20.548L122.804 23.548Z" fill="#3A485F" />
    <path fillRule="evenodd" clipRule="evenodd" d="M95.091 7.54797L122.804 23.548L127.999 20.548L100.287 4.54797L95.091 7.54797Z" fill="white" />
    <path fillRule="evenodd" clipRule="evenodd" d="M95.091 7.54797V39.548L122.803 55.548V23.548L95.091 7.54797Z" fill="#CED0D1" />
    <path fillRule="evenodd" clipRule="evenodd" d="M103.751 32.548C103.751 33.652 104.526 34.996 105.484 35.548C106.44 36.1 107.216 35.652 107.216 34.548C107.216 33.444 106.44 32.1 105.484 31.548C104.527 30.996 103.751 31.444 103.751 32.548Z" fill="#E5E6E8" />
    <path fillRule="evenodd" clipRule="evenodd" d="M110.68 36.548C110.68 37.652 111.455 38.996 112.412 39.548C113.368 40.1 114.144 39.652 114.144 38.548C114.144 37.444 113.368 36.1 112.412 35.548C111.455 34.996 110.68 35.444 110.68 36.548ZM103.751 24.548C103.751 25.652 104.526 26.996 105.484 27.548C106.44 28.1 107.216 27.652 107.216 26.548C107.216 25.444 106.44 24.1 105.484 23.548C104.527 22.996 103.751 23.444 103.751 24.548Z" fill="#697587" />
    <path fillRule="evenodd" clipRule="evenodd" d="M110.68 28.548C110.68 29.652 111.455 30.996 112.412 31.548C113.368 32.1 114.144 31.652 114.144 30.548C114.144 29.444 113.368 28.1 112.412 27.548C111.455 26.996 110.68 27.444 110.68 28.548Z" fill="#E5E6E8" />
    <path d="M105.483 25.548L101.555 27.816C100.643 28.3427 99.6082 28.62 98.555 28.62C97.5017 28.62 96.4671 28.3427 95.555 27.816L87.7 23.28C86.7877 22.7538 85.7531 22.4768 84.7 22.4768C83.6468 22.4768 82.6122 22.7538 81.7 23.28L58.717 36.549M112.412 37.548L108.484 39.816C107.572 40.3425 106.814 41.0998 106.288 42.012C105.761 42.9241 105.484 43.9588 105.484 45.012V54.124C105.484 55.1786 105.206 56.2145 104.678 57.1273C104.15 58.0402 103.391 58.7979 102.477 59.324L79.502 72.549L112.412 37.548Z" stroke="#697587" strokeWidth="1.5" strokeLinecap="round" strokeLinejoin="round" />
    <path fillRule="evenodd" clipRule="evenodd" d="M95.086 39.55V87.5501L100.282 84.5501V36.55L95.086 39.55Z" fill="#3A485F" />
    <path fillRule="evenodd" clipRule="evenodd" d="M58.713 12.55L53.517 15.55L95.087 39.55L100.282 36.55L58.713 12.55Z" fill="white" />
    <path fillRule="evenodd" clipRule="evenodd" d="M53.517 15.55V63.55L95.087 87.55V39.55L53.517 15.55Z" fill="#CED0D1" />
    <path fillRule="evenodd" clipRule="evenodd" d="M62.177 56.5501C62.177 57.6541 62.952 58.9981 63.909 59.5501C64.865 60.1021 65.641 59.6541 65.641 58.5501C65.641 57.4461 64.865 56.1021 63.909 55.5501C62.952 54.9981 62.177 55.4461 62.177 56.5501ZM69.106 60.5501C69.106 61.6541 69.881 62.9981 70.838 63.5501C71.794 64.1021 72.57 63.6541 72.57 62.5501C72.57 61.4461 71.794 60.1021 70.838 59.5501C69.881 58.9981 69.106 59.4461 69.106 60.5501ZM76.034 64.5501C76.034 65.6541 76.809 66.9981 77.766 67.5501C78.722 68.1021 79.498 67.6541 79.498 66.5501C79.498 65.4461 78.722 64.1021 77.766 63.5501C76.809 62.9981 76.034 63.4461 76.034 64.5501Z" fill="#E5E6E8" />
    <path fillRule="evenodd" clipRule="evenodd" d="M82.962 68.5501C82.962 69.6541 83.737 70.9981 84.694 71.5501C85.65 72.1021 86.426 71.6541 86.426 70.5501C86.426 69.4461 85.65 68.1021 84.694 67.5501C83.737 66.9981 82.962 67.4461 82.962 68.5501Z" fill="#697587" />
    <path fillRule="evenodd" clipRule="evenodd" d="M62.177 48.5501C62.177 49.6551 62.952 50.9981 63.909 51.5501C64.865 52.1021 65.641 51.6551 65.641 50.5501C65.641 49.4461 64.865 48.1021 63.909 47.5501C62.952 46.9981 62.177 47.4461 62.177 48.5501ZM69.106 52.5501C69.106 53.6551 69.881 54.9981 70.838 55.5501C71.794 56.1021 72.57 55.6551 72.57 54.5501C72.57 53.4461 71.794 52.1021 70.838 51.5501C69.881 50.9981 69.106 51.4461 69.106 52.5501ZM76.034 56.5501C76.034 57.6551 76.809 58.9981 77.766 59.5501C78.722 60.1021 79.498 59.6551 79.498 58.5501C79.498 57.4461 78.722 56.1021 77.766 55.5501C76.809 54.9981 76.034 55.4461 76.034 56.5501ZM82.962 60.5501C82.962 61.6551 83.737 62.9981 84.694 63.5501C85.65 64.1021 86.426 63.6551 86.426 62.5501C86.426 61.4461 85.65 60.1021 84.694 59.5501C83.737 58.9981 82.962 59.4461 82.962 60.5501Z" fill="#E5E6E8" />
    <path fillRule="evenodd" clipRule="evenodd" d="M62.177 40.5501C62.177 41.6551 62.952 42.9981 63.909 43.5501C64.865 44.1031 65.641 43.6551 65.641 42.5501C65.641 41.4461 64.865 40.1031 63.909 39.5501C62.952 38.9981 62.177 39.4461 62.177 40.5501Z" fill="#697587" />
    <path fillRule="evenodd" clipRule="evenodd" d="M69.106 44.5501C69.106 45.6551 69.881 46.9981 70.838 47.5501C71.794 48.1031 72.57 47.6551 72.57 46.5501C72.57 45.4461 71.794 44.1031 70.838 43.5501C69.881 42.9981 69.106 43.4461 69.106 44.5501ZM76.034 48.5501C76.034 49.6551 76.809 50.9981 77.766 51.5501C78.722 52.1031 79.498 51.6551 79.498 50.5501C79.498 49.4461 78.722 48.1031 77.766 47.5501C76.809 46.9981 76.034 47.4461 76.034 48.5501ZM82.962 52.5501C82.962 53.6551 83.737 54.9981 84.694 55.5501C85.65 56.1031 86.426 55.6551 86.426 54.5501C86.426 53.4461 85.65 52.1031 84.694 51.5501C83.737 50.9981 82.962 51.4461 82.962 52.5501Z" fill="#E5E6E8" />
    <path fillRule="evenodd" clipRule="evenodd" d="M62.177 32.55C62.177 33.655 62.952 34.998 63.909 35.55C64.865 36.103 65.641 35.655 65.641 34.55C65.641 33.446 64.865 32.103 63.909 31.55C62.952 30.999 62.177 31.446 62.177 32.55Z" fill="#697587" />
    <path fillRule="evenodd" clipRule="evenodd" d="M69.106 36.55C69.106 37.655 69.881 38.998 70.838 39.55C71.794 40.103 72.57 39.655 72.57 38.55C72.57 37.446 71.794 36.103 70.838 35.55C69.881 34.999 69.106 35.446 69.106 36.55Z" fill="#E5E6E8" />
    <path fillRule="evenodd" clipRule="evenodd" d="M76.034 40.55C76.034 41.655 76.809 42.998 77.766 43.55C78.722 44.103 79.498 43.655 79.498 42.55C79.498 41.446 78.722 40.103 77.766 39.55C76.809 38.999 76.034 39.446 76.034 40.55Z" fill="#697587" />
    <path fillRule="evenodd" clipRule="evenodd" d="M82.962 44.55C82.962 45.655 83.737 46.998 84.694 47.55C85.65 48.103 86.426 47.655 86.426 46.55C86.426 45.446 85.65 44.103 84.694 43.55C83.737 42.999 82.962 43.446 82.962 44.55Z" fill="#E5E6E8" />
    <path d="M84.866 69.452L80.938 71.72C80.0257 72.2463 79.2681 73.0037 78.7415 73.9158C78.2149 74.828 77.9377 75.8627 77.938 76.916V86.028C77.9379 87.0825 77.6599 88.1184 77.132 89.0313C76.6041 89.9442 75.8449 90.7018 74.931 91.228L51.956 104.453M63.91 33.551L59.98 35.82C59.0679 36.3467 58.0332 36.624 56.98 36.624C55.9268 36.624 54.8921 36.3467 53.98 35.82L46.124 31.285C45.2119 30.7583 44.1772 30.481 43.124 30.481C42.0708 30.481 41.0361 30.7583 40.124 31.285L17.143 44.552L63.91 33.551ZM36.369 57.453L63.909 41.586L59.981 43.854C59.0689 44.3807 58.0342 44.658 56.981 44.658C55.9278 44.658 54.8931 44.3807 53.981 43.854L53.051 43.317C52.1397 42.7908 51.1062 42.5136 50.0539 42.5131C49.0017 42.5125 47.9678 42.7887 47.056 43.314L22.513 57.453H36.369Z" stroke="#697587" strokeWidth="1.5" strokeLinecap="round" strokeLinejoin="round" />
    <path fillRule="evenodd" clipRule="evenodd" d="M56.7 53.73L63.629 49.698L56.7 53.73Z" fill="#E5E6E8" />
    <path d="M51.304 72.8281L67.837 63.2831C68.7492 62.7563 69.5066 61.9987 70.0332 61.0865C70.5599 60.1742 70.8371 59.1394 70.837 58.0861V49.0071C70.8372 47.9558 71.1136 46.923 71.6385 46.0121C72.1634 45.1012 72.9185 44.3443 73.828 43.8171L77.765 41.5341M57.768 85.2201L84.867 69.4511L57.768 85.2201Z" stroke="#697587" strokeWidth="1.5" strokeLinecap="round" strokeLinejoin="round" />
    <path fillRule="evenodd" clipRule="evenodd" d="M60.617 59.453V123.453L65.813 120.453V56.453L60.617 59.453Z" fill="#3A485F" />
    <path fillRule="evenodd" clipRule="evenodd" d="M10.388 24.453L5.19202 27.453L60.617 59.453L65.814 56.453L10.388 24.453Z" fill="white" />
    <path fillRule="evenodd" clipRule="evenodd" d="M5.19202 27.453V91.453L60.617 123.453V59.453L5.19202 27.453Z" fill="#CED0D1" />
    <path fillRule="evenodd" clipRule="evenodd" d="M13.852 84.452C13.852 85.556 14.627 86.9 15.584 87.452C16.54 88.004 17.316 87.556 17.316 86.452C17.316 85.348 16.54 84.004 15.584 83.452C14.627 82.9 13.852 83.348 13.852 84.452ZM20.78 88.452C20.78 89.556 21.555 90.9 22.512 91.452C23.468 92.004 24.244 91.556 24.244 90.452C24.244 89.348 23.468 88.004 22.512 87.452C21.555 86.9 20.78 87.348 20.78 88.452ZM27.709 92.452C27.709 93.556 28.483 94.9 29.441 95.452C30.397 96.004 31.173 95.556 31.173 94.452C31.173 93.348 30.397 92.004 29.441 91.452C28.484 90.9 27.709 91.348 27.709 92.452ZM34.637 96.452C34.637 97.556 35.412 98.9 36.369 99.452C37.325 100.004 38.101 99.556 38.101 98.452C38.101 97.348 37.325 96.004 36.369 95.452C35.412 94.9 34.637 95.348 34.637 96.452ZM41.565 100.452C41.565 101.556 42.34 102.9 43.297 103.452C44.253 104.004 45.029 103.556 45.029 102.452C45.029 101.348 44.253 100.004 43.297 99.452C42.34 98.9 41.565 99.348 41.565 100.452Z" fill="#E5E6E8" />
    <path fillRule="evenodd" clipRule="evenodd" d="M48.493 104.452C48.493 105.556 49.268 106.9 50.225 107.452C51.181 108.004 51.957 107.556 51.957 106.452C51.957 105.348 51.181 104.004 50.225 103.452C49.268 102.9 48.493 103.348 48.493 104.452ZM13.852 76.452C13.852 77.556 14.627 78.9 15.584 79.452C16.54 80.004 17.316 79.556 17.316 78.452C17.316 77.348 16.54 76.004 15.584 75.452C14.627 74.9 13.852 75.348 13.852 76.452Z" fill="#697587" />
    <path fillRule="evenodd" clipRule="evenodd" d="M20.78 80.452C20.78 81.556 21.555 82.9 22.512 83.452C23.468 84.004 24.244 83.556 24.244 82.452C24.244 81.348 23.468 80.004 22.512 79.452C21.555 78.9 20.78 79.348 20.78 80.452ZM27.709 84.452C27.709 85.556 28.483 86.9 29.441 87.452C30.397 88.004 31.173 87.556 31.173 86.452C31.173 85.348 30.397 84.004 29.441 83.452C28.484 82.9 27.709 83.348 27.709 84.452ZM34.637 88.452C34.637 89.556 35.412 90.9 36.369 91.452C37.325 92.004 38.101 91.556 38.101 90.452C38.101 89.348 37.325 88.004 36.369 87.452C35.412 86.9 34.637 87.348 34.637 88.452ZM41.565 92.452C41.565 93.556 42.34 94.9 43.297 95.452C44.253 96.004 45.029 95.556 45.029 94.452C45.029 93.348 44.253 92.004 43.297 91.452C42.34 90.9 41.565 91.348 41.565 92.452ZM48.493 96.452C48.493 97.556 49.268 98.9 50.225 99.452C51.181 100.004 51.957 99.556 51.957 98.452C51.957 97.348 51.181 96.004 50.225 95.452C49.268 94.9 48.493 95.348 48.493 96.452ZM13.852 68.452C13.852 69.556 14.627 70.9 15.584 71.452C16.54 72.004 17.316 71.556 17.316 70.452C17.316 69.348 16.54 68.004 15.584 67.452C14.627 66.9 13.852 67.348 13.852 68.452ZM20.78 72.452C20.78 73.556 21.555 74.9 22.512 75.452C23.468 76.004 24.244 75.556 24.244 74.452C24.244 73.348 23.468 72.004 22.512 71.452C21.555 70.9 20.78 71.348 20.78 72.452ZM27.709 76.452C27.709 77.556 28.483 78.9 29.441 79.452C30.397 80.004 31.173 79.556 31.173 78.452C31.173 77.348 30.397 76.004 29.441 75.452C28.484 74.9 27.709 75.348 27.709 76.452ZM34.637 80.452C34.637 81.556 35.412 82.9 36.369 83.452C37.325 84.004 38.101 83.556 38.101 82.452C38.101 81.348 37.325 80.004 36.369 79.452C35.412 78.9 34.637 79.348 34.637 80.452ZM41.565 84.452C41.565 85.556 42.34 86.9 43.297 87.452C44.253 88.004 45.029 87.556 45.029 86.452C45.029 85.348 44.253 84.004 43.297 83.452C42.34 82.9 41.565 83.348 41.565 84.452Z" fill="#E5E6E8" />
    <path fillRule="evenodd" clipRule="evenodd" d="M48.493 88.452C48.493 89.556 49.268 90.9 50.225 91.452C51.181 92.004 51.957 91.556 51.957 90.452C51.957 89.348 51.181 88.004 50.225 87.452C49.268 86.9 48.493 87.348 48.493 88.452Z" fill="#697587" />
    <path fillRule="evenodd" clipRule="evenodd" d="M13.852 60.452C13.852 61.556 14.627 62.9 15.584 63.452C16.54 64.004 17.316 63.556 17.316 62.452C17.316 61.348 16.54 60.004 15.584 59.452C14.627 58.9 13.852 59.348 13.852 60.452ZM20.78 64.452C20.78 65.556 21.555 66.9 22.512 67.452C23.468 68.004 24.244 67.556 24.244 66.452C24.244 65.348 23.468 64.004 22.512 63.452C21.555 62.9 20.78 63.348 20.78 64.452ZM27.709 68.452C27.709 69.556 28.483 70.9 29.441 71.452C30.397 72.004 31.173 71.556 31.173 70.452C31.173 69.348 30.397 68.004 29.441 67.452C28.484 66.9 27.709 67.348 27.709 68.452ZM34.637 72.452C34.637 73.556 35.412 74.9 36.369 75.452C37.325 76.004 38.101 75.556 38.101 74.452C38.101 73.348 37.325 72.004 36.369 71.452C35.412 70.9 34.637 71.348 34.637 72.452ZM41.565 76.452C41.565 77.556 42.34 78.9 43.297 79.452C44.253 80.004 45.029 79.556 45.029 78.452C45.029 77.348 44.253 76.004 43.297 75.452C42.34 74.9 41.565 75.348 41.565 76.452ZM48.493 80.452C48.493 81.556 49.268 82.9 50.225 83.452C51.181 84.004 51.957 83.556 51.957 82.452C51.957 81.348 51.181 80.004 50.225 79.452C49.268 78.9 48.493 79.348 48.493 80.452ZM13.852 52.452C13.852 53.557 14.627 54.9 15.584 55.452C16.54 56.004 17.316 55.557 17.316 54.452C17.316 53.348 16.54 52.005 15.584 51.452C14.627 50.9 13.852 51.348 13.852 52.452Z" fill="#E5E6E8" />
    <path fillRule="evenodd" clipRule="evenodd" d="M20.78 56.452C20.78 57.557 21.555 58.9 22.512 59.452C23.468 60.004 24.244 59.557 24.244 58.452C24.244 57.348 23.468 56.005 22.512 55.452C21.555 54.9 20.78 55.348 20.78 56.452ZM27.709 60.452C27.709 61.557 28.483 62.9 29.441 63.452C30.397 64.004 31.173 63.557 31.173 62.452C31.173 61.348 30.397 60.005 29.441 59.452C28.484 58.9 27.709 59.348 27.709 60.452Z" fill="#697587" />
    <path fillRule="evenodd" clipRule="evenodd" d="M34.637 64.452C34.637 65.557 35.412 66.9 36.369 67.452C37.325 68.004 38.101 67.557 38.101 66.452C38.101 65.348 37.325 64.005 36.369 63.452C35.412 62.9 34.637 63.348 34.637 64.452ZM41.565 68.452C41.565 69.557 42.34 70.9 43.297 71.452C44.253 72.004 45.029 71.557 45.029 70.452C45.029 69.348 44.253 68.005 43.297 67.452C42.34 66.9 41.565 67.348 41.565 68.452ZM48.493 72.452C48.493 73.557 49.268 74.9 50.225 75.452C51.181 76.004 51.957 75.557 51.957 74.452C51.957 73.348 51.181 72.005 50.225 71.452C49.268 70.9 48.493 71.348 48.493 72.452Z" fill="#E5E6E8" />
    <path fillRule="evenodd" clipRule="evenodd" d="M13.852 44.453C13.852 45.557 14.627 46.9 15.584 47.453C16.54 48.005 17.316 47.557 17.316 46.453C17.316 45.348 16.54 44.005 15.584 43.453C14.627 42.9 13.852 43.348 13.852 44.453Z" fill="#697587" />
    <path fillRule="evenodd" clipRule="evenodd" d="M20.78 48.453C20.78 49.557 21.555 50.9 22.512 51.453C23.468 52.005 24.244 51.557 24.244 50.453C24.244 49.348 23.468 48.005 22.512 47.453C21.555 46.9 20.78 47.348 20.78 48.453ZM27.709 52.453C27.709 53.557 28.483 54.9 29.441 55.453C30.397 56.005 31.173 55.557 31.173 54.453C31.173 53.348 30.397 52.005 29.441 51.453C28.484 50.9 27.709 51.348 27.709 52.453ZM34.637 56.453C34.637 57.557 35.412 58.9 36.369 59.453C37.325 60.005 38.101 59.557 38.101 58.453C38.101 57.348 37.325 56.005 36.369 55.453C35.412 54.9 34.637 55.348 34.637 56.453ZM41.565 60.453C41.565 61.557 42.34 62.9 43.297 63.453C44.253 64.005 45.029 63.557 45.029 62.453C45.029 61.348 44.253 60.005 43.297 59.453C42.34 58.9 41.565 59.348 41.565 60.453ZM48.493 64.453C48.493 65.557 49.268 66.9 50.225 67.453C51.181 68.005 51.957 67.557 51.957 66.453C51.957 65.348 51.181 64.005 50.225 63.453C49.268 62.9 48.493 63.348 48.493 64.453Z" fill="#E5E6E8" />
    <path d="M29.439 45.698C30.5935 46.3664 31.7142 47.0917 32.797 47.871" stroke="#FF6F00" strokeWidth="2" />
    <path d="M37.535 51.772C46.967 60.566 54.236 73.813 56.327 86.29" stroke="#FF6F00" strokeWidth="2" strokeDasharray="8.19 6.14" />
    <path d="M1.93799 61.575C1.93799 60.176 2.01799 58.843 2.16799 57.58M56.736 89.335C56.8695 90.6621 56.9373 91.9951 56.939 93.329L56.736 89.335Z" stroke="#FF6F00" strokeWidth="2" />
    <path d="M3.48999 51.932C6.57199 43.591 13.97 40.088 23.134 42.897" stroke="#FF6F00" strokeWidth="2" strokeDasharray="7.74 5.81" />
    <path d="M29.439 109.207C28.2845 108.539 27.1638 107.813 26.081 107.034M25.864 43.9C27.0903 44.4278 28.2841 45.0282 29.439 45.698L25.864 43.9Z" stroke="#FF6F00" strokeWidth="2" />
    <path d="M21.342 103.133C11.91 94.338 4.64199 81.091 2.54999 68.615" stroke="#FF6F00" strokeWidth="2" strokeDasharray="8.19 6.14" />
    <path d="M56.938 93.33C56.938 94.729 56.86 96.0599 56.708 97.3249M2.14196 65.57C2.00839 64.2425 1.94064 62.9092 1.93896 61.575L2.14196 65.57Z" stroke="#FF6F00" strokeWidth="2" />
    <path d="M55.388 102.973C52.305 111.313 44.907 114.817 35.743 112.008" stroke="#FF6F00" strokeWidth="2" strokeDasharray="7.74 5.81" />
    <path d="M33.014 111.004C31.7876 110.476 30.5939 109.876 29.439 109.206" stroke="#FF6F00" strokeWidth="2" />
    <path fillRule="evenodd" clipRule="evenodd" d="M38.438 77.452C38.438 75.0651 37.4898 72.7759 35.8019 71.0881C34.1141 69.4002 31.8249 68.452 29.438 68.452C27.051 68.452 24.7619 69.4002 23.074 71.0881C21.3862 72.7759 20.438 75.0651 20.438 77.452C20.438 79.839 21.3862 82.1282 23.074 83.816C24.7619 85.5038 27.051 86.452 29.438 86.452C31.8249 86.452 34.1141 85.5038 35.8019 83.816C37.4898 82.1282 38.438 79.839 38.438 77.452Z" fill="#FF6F00" />
</svg>
